<svg width="140" height="28" viewBox="0 0 140 28" fill="none" xmlns="http://www.w3.org/2000/svg">
<g clip-path="url(#clip0_11052_6036)">
<path d="M100.276 12.6336V15.3692C100.276 16.4668 99.506 17.0744 98.5208 17.0744C97.5356 17.0744 96.7653 16.464 96.7653 15.3692V12.6336C96.7653 11.536 97.5356 10.9284 98.5208 10.9284C99.506 10.9284 100.276 11.536 100.276 12.6336ZM112.872 11.0628H110.659V13.0816H112.872C113.561 13.0816 114.005 12.7288 114.005 12.0792C114.005 11.4128 113.558 11.0628 112.872 11.0628ZM140 0V28H82.8133V18.7404H84.6079V14.854H88.5487V13.0536H84.6079V11.0628H88.5487V9.2624H82.8133V0H140ZM102.085 12.6336C102.085 10.5336 100.79 9.1252 98.5208 9.1252C96.2517 9.1252 94.9567 10.5336 94.9567 12.6336V15.3692C94.9567 17.4692 96.2517 18.8776 98.5208 18.8776C100.79 18.8776 102.085 17.4692 102.085 15.3692V12.6336ZM116.123 18.7404L113.773 14.7448C115.096 14.434 115.811 13.4596 115.811 12.0512C115.811 10.346 114.745 9.2624 112.827 9.2624H108.845V18.7404H110.653V14.84H111.761L114.041 18.7404H116.123ZM130.77 9.2596H128.962L126.626 14.1344L124.29 9.2596H122.481V18.7376H124.276V12.7792L125.908 16.1924H127.34L128.973 12.7792V18.7376H130.768L130.77 9.2596ZM0 18.7404H1.80854V14.854H5.75216V13.0536H1.80854V11.0628H5.75216V9.2624L0 9.2568V18.7404ZM14.499 9.2568L11.1248 18.7404H13.0142L13.6896 16.8308H17.0388L17.7142 18.7404H19.6037L16.2294 9.2568H14.499ZM14.312 15.1088L15.3642 12.0344L16.4164 15.1088H14.312ZM29.1488 10.9228C30.067 10.9228 30.7954 11.452 30.8903 12.4264H32.7128C32.6458 10.4356 31.348 9.1224 29.1488 9.1224C26.8797 9.1224 25.5847 10.5168 25.5847 12.6308V15.3664C25.5847 17.4804 26.8797 18.8748 29.1488 18.8748C31.348 18.8748 32.6458 17.5616 32.7128 15.5708H30.8903C30.7954 16.5452 30.067 17.0744 29.1488 17.0744C28.1636 17.0744 27.3932 16.464 27.3932 15.3664V12.6308C27.3932 11.5332 28.1636 10.9228 29.1488 10.9228ZM38.532 11.06H41.1638V18.7404H43.0282V11.06H45.6601V9.2596H38.532V11.06ZM55.0823 9.1224C52.8133 9.1224 51.5183 10.5168 51.5183 12.6308V15.3664C51.5183 17.4804 52.8133 18.8748 55.0823 18.8748C57.3514 18.8748 58.6464 17.4804 58.6464 15.3664V12.6308C58.6492 10.5168 57.3514 9.1224 55.0823 9.1224ZM56.8378 15.3664C56.8378 16.464 56.0675 17.0744 55.0823 17.0744C54.0971 17.0744 53.3268 16.464 53.3268 15.3664V12.6308C53.3268 11.5332 54.0971 10.9228 55.0823 10.9228C56.0675 10.9228 56.8378 11.5332 56.8378 12.6308V15.3664ZM72.4867 12.0484C72.4867 10.3152 71.4485 9.2568 69.5032 9.2568H65.5205V18.7376H67.3291V14.8372H68.4371L70.7201 18.7376H72.7993L70.4493 14.742C71.7834 14.4312 72.4867 13.4568 72.4867 12.0484ZM69.5423 13.0788H67.3291V11.06H69.5423C70.2317 11.06 70.6754 11.4128 70.6754 12.0764C70.6782 12.726 70.2317 13.0788 69.5423 13.0788Z" fill="white"/>
</g>
<defs>
<clipPath id="clip0_11052_6036">
<rect width="140" height="28" fill="white"/>
</clipPath>
</defs>
</svg>
